<?xml version="1.0" encoding="UTF-8"?>
<svg id="Layer_2" data-name="Layer 2" xmlns="http://www.w3.org/2000/svg" viewBox="0 0 340.16 340.16">
  <defs>
    <style>
      .cls-1 {
        fill: #85243f;
      }

      .cls-2 {
        fill: #fffeee;
      }
    </style>
  </defs>
  <g id="Layer_1-2" data-name="Layer 1">
    <rect class="cls-1" width="340.16" height="340.16"/>
    <g>
      <path class="cls-2" d="M98.34,202.16h-45.84v-64.77h25.25v44.38h20.59v20.39Z"/>
      <path class="cls-2" d="M133.79,145.84c-11.27,0-18.72,1.91-23.6,6.15,4.26.07,8.29-.07,9.24-.15,7.9-.69,17.05-2.2,24.94-5.29-3-.48-6.46-.71-10.58-.71ZM156.5,151.56c-1.45-1.14-3.01-2.09-4.74-2.86-10.18,4.89-31.56,8.63-45.41,7.97-2.26,4.1-3.75,10.44-3.75,16.64,0,21.75,9.23,30.78,31.66,30.78,21.17,0,30.2-9.23,30.2-30.88,0-10.78-2.32-17.18-7.96-21.66ZM133.69,187.21c-3.01,0-5.73-1.46-6.79-3.69-.79-1.85-1.27-5.05-1.27-9.03,0-6.8,2.13-9.33,8.16-9.33,5.63,0,7.67,2.82,7.67,10.98,0,7.48-2.52,11.07-7.76,11.07ZM119.43,151.84c7.9-.69,17.05-2.2,24.94-5.29-3-.48-6.46-.71-10.58-.71-11.27,0-18.72,1.91-23.6,6.15,4.26.07,8.29-.07,9.24-.15Z"/>
      <path class="cls-2" d="M213.32,202.16h-30.98l-16.02-54.38h24.28l4.86,17.29c.78,2.82.97,4.27,2.23,15.93h.58c.78-9.61,1.07-12.62,2.04-15.93l4.66-17.29h23.99l-15.63,54.38Z"/>
      <path class="cls-2" d="M285.09,200.12c-11.36,2.52-17.38,3.3-25.25,3.3-20.39,0-28.94-8.93-28.94-30.2,0-10.78,2.52-18.06,7.77-22.24,4.56-3.59,10.88-5.15,21.46-5.15s17.67,1.55,22.24,5.15c5.24,4.18,7.28,10.39,7.28,22.34,0,3.2-.1,4.86-.49,7.96h-34.57c.1,2.04.39,3.11,1.17,4.27,1.46,2.04,5.83,3.3,11.75,3.3s12.43-.97,20.59-3.11l-3.01,14.37ZM270.52,169.15c0-6.12-2.14-8.06-8.55-8.06-5.73,0-8.06,2.33-8.25,8.06h16.8Z"/>
      <path class="cls-2" d="M157.57,139.88c-3.75-5.36-25.43-3.76-31.47-2.98-7.39.96-25.95,4.82-31.22,9.96-2.84,2.76-2.56,5.74.96,7.69,2.27,1.24,5.98,1.92,10.52,2.13.33-.58.67-1.12,1.02-1.61.83-1.15,1.77-2.16,2.82-3.08-5.53-.09-11.44-.54-11.51-1.95l.33-.43c6.46-3.63,13.95-5.86,21.24-7.2,6.41-1.16,14.94-2.09,21.42-1.92,1.2.03,10.75.71,10.7,2.05-2.42,1.57-5.12,2.9-7.99,4.01,2.82.48,5.24,1.18,7.39,2.15,1.64-.79,2.99-1.61,3.97-2.44,1.98-1.67,3.54-3.95,1.83-6.39Z"/>
    </g>
  </g>
</svg>